<?xml version="1.0" encoding="UTF-8" standalone="no"?>
<!-- Created with Inkscape (http://www.inkscape.org/) -->

<svg
   xmlns:dc="http://purl.org/dc/elements/1.1/"
   xmlns:cc="http://creativecommons.org/ns#"
   xmlns:rdf="http://www.w3.org/1999/02/22-rdf-syntax-ns#"
   xmlns:svg="http://www.w3.org/2000/svg"
   xmlns="http://www.w3.org/2000/svg"
   xmlns:sodipodi="http://sodipodi.sourceforge.net/DTD/sodipodi-0.dtd"
   xmlns:inkscape="http://www.inkscape.org/namespaces/inkscape"
   version="1.1"
   id="svg64"
   width="1024"
   height="262"
   viewBox="0 0 1024 262"
   sodipodi:docname="tristanknelange.svg"
   inkscape:version="0.92.2 5c3e80d, 2017-08-06">
  <metadata
     id="metadata70">
    <rdf:RDF>
      <cc:Work
         rdf:about="">
        <dc:format>image/svg+xml</dc:format>
        <dc:type
           rdf:resource="http://purl.org/dc/dcmitype/StillImage" />
        <dc:title></dc:title>
      </cc:Work>
    </rdf:RDF>
  </metadata>
  <defs
     id="defs68" />
  <sodipodi:namedview
     pagecolor="#ffffff"
     bordercolor="#666666"
     borderopacity="1"
     objecttolerance="10"
     gridtolerance="10"
     guidetolerance="10"
     inkscape:pageopacity="0"
     inkscape:pageshadow="2"
     inkscape:window-width="1440"
     inkscape:window-height="801"
     id="namedview66"
     showgrid="false"
     inkscape:zoom="0.40524094"
     inkscape:cx="976.64736"
     inkscape:cy="493.48285"
     inkscape:window-x="0"
     inkscape:window-y="1"
     inkscape:window-maximized="1"
     inkscape:current-layer="svg64" />
  <g
     id="g4878"
     transform="matrix(0.65892042,0,0,0.65892042,-202.77834,520.46106)"
     style="fill:#6784a6;fill-opacity:1">
    <path
       sodipodi:nodetypes="ccccssccscsccccsccccsscccscssccsccsccsccccscsscccccsscccccccccssssccccasccccscssaacsccscssccccscccscccccsssccccsccscsccsssscsscsccccccccsssscccccccccsccccccccscccccssccsscsscccsccccccccccc"
       inkscape:connector-curvature="0"
       d="m 1330.2831,-698.9833 c -3.0172,0 -3.571,1.80367 -5.4118,17.64311 -1.1278,9.7037 -2.262,25.70735 -2.5206,35.56188 -0.2584,9.85449 -1.0103,16.47066 -1.6736,14.70257 -2.1161,-5.64023 -6.1075,-3.69042 -8.0307,3.92508 -2.9084,11.51804 -10.021,27.4958 -18.5751,41.72842 -14.9407,24.85906 -33.8192,38.02705 -52.1383,36.36591 -12.4116,-1.12542 -23.1691,-7.42472 -31.0724,-18.19116 -6.0499,-8.24159 -6.649,-13.27498 -1.5786,-13.27498 1.4336,0 5.4269,-1.81098 8.8741,-4.02353 22.2363,-14.27197 35.592,-44.21464 25.4637,-57.09065 -7.1903,-9.14091 -24.4978,-3.68015 -35.9557,11.34199 -8.5387,14.51954 -12.5701,28.22479 -12.6449,44.40639 l -8.5623,0.58417 c -4.7093,0.32023 -8.9197,10e-4 -9.3565,-0.70559 -0.4367,-0.7071 -3.5359,-2.43234 -6.8885,-3.83316 -13.7536,-5.7466 -25.0466,-19.24722 -27.19,-32.51305 -0.7464,-4.61968 -1.8686,-6.1827 -4.7422,-6.59319 -5.0223,-0.71746 -6.1699,2.89383 -4.0334,12.70064 3.0317,13.91618 4.0347,53.02833 1.4506,56.56229 -2.1588,2.95236 -2.492,2.93659 -9.1038,-0.43647 -14.9959,-7.65034 -45.834,-44.80801 -45.834,-55.22657 0,-2.16 -1.2658,-4.4113 -2.8125,-5.0048 -1.5467,-0.59354 -4.1932,-2.46034 -5.881,-4.14824 -3.9882,-3.98816 -7.5482,-3.89567 -9.7701,0.25599 -2.1793,4.07211 -0.4836,11.79819 2.5894,11.79819 3.5883,0 7.4744,6.96315 7.476,13.39641 0,8.33368 4.0461,28.23569 7.2889,35.88019 1.9378,4.56801 3.5859,6.25891 5.6973,5.8351 2.4925,-0.50029 2.9535,-2.35066 2.8421,-11.46999 -0.084,-6.84751 -1.2193,-12.9575 -3.0652,-16.49445 -3.8655,-7.4067 -2.3529,-8.68522 1.887,-1.59497 5.7933,9.68789 25.9071,29.95981 34.7644,35.04006 4.7049,2.69864 10.5382,4.91435 12.9665,4.92274 7.9862,0.0285 9.0283,-3.36975 9.0283,-29.47409 0,-22.00573 0.2043,-23.60962 2.5565,-20.02244 6.8779,10.48884 29.1181,20.87009 44.8331,20.92821 4.7988,0.0179 5.7639,0.88493 8.9101,8.00111 4.2345,9.57731 16.3677,21.53488 23.4224,23.08436 11.4618,4.72712 25.3312,5.48474 37.1634,1.6639 29.9178,-13.85582 45.9824,-43.5268 57.1629,-73.68358 2.7097,-7.52529 3.1146,-7.97703 3.2031,-3.57391 0.4159,20.67505 3.5949,35.20197 11.0301,50.40887 9.8207,20.08537 17.5112,26.45418 31.7485,26.28414 16.3742,-0.19558 27.0333,-8.66008 37.6393,-29.88433 5.1022,-10.21032 13.6983,-35.38597 13.6983,-40.12033 0,-1.4892 0.7926,-4.19026 1.7624,-6.00244 1.6993,-3.17534 2.0249,-3.1088 8.9495,1.86408 3.9519,2.83807 9.655,7.41546 12.6711,10.17037 3.0163,2.75489 8.6292,6.67629 12.4744,8.71652 6.6292,3.51749 6.7647,3.73808 2.6188,4.2467 -8.885,1.08999 -28.6721,12.68527 -33.5896,19.68439 -9.5762,13.62997 -7.3762,20.93357 6.7082,22.2869 6.451,0.61983 10.1906,-0.0814 16.4419,-3.09148 10.9962,-5.29489 25.7929,-15.72822 37.2356,-26.25135 l 9.5008,-8.73622 3.0751,7.29223 c 2.4056,5.70526 4.1577,7.50873 8.047,8.28661 4.3628,0.87255 6.6602,-0.46062 18.736,-10.89567 l 13.7608,-11.89334 3.3966,4.56831 c 1.8672,2.51277 6.419,7.55848 10.1146,11.2107 6.2126,6.13951 7.3533,6.60746 15.1226,6.23222 4.6217,-0.22324 10.5289,0.47534 13.1306,1.55229 2.6016,1.07693 5.8151,1.95924 7.1412,1.95924 1.9872,0 2.4122,4.42248 2.4122,25.14538 v 25.14208 l -5.822,3.95786 c -8.2539,5.60876 -15.3361,15.11844 -18.8048,25.25368 -3.6697,10.72294 -3.8662,30.08604 -0.3478,34.33775 1.339,1.61818 2.8356,5.18966 4.6963,7.46614 2.1834,2.67141 4.6129,5.70367 7.4891,7.14456 5.4652,2.73804 12.6793,2.10535 14.847,-1.29962 2.2956,-3.60596 3.0043,-11.82481 3.4162,-39.75276 l 0.407,-27.7052 4.2403,-2.02817 c 2.3315,-1.11599 6.4902,-2.41004 9.2416,-2.87486 2.7512,-0.46483 10.2942,-1.74314 16.7634,-2.84209 18.1644,-3.08572 44.0024,-15.31688 56.1488,-26.5795 4.0815,-3.7845 7.6593,-6.88199 7.9486,-6.88199 0.2892,0 4.7107,5.30053 7.4564,7.51865 8.454,6.82994 17.1307,14.19749 27.4589,17.58075 5.8377,1.91227 8.0293,1.61897 18.3913,1.17163 13.9117,-0.60055 17.7157,-1.45203 27.5052,-6.14031 13.8533,-6.63457 40.2891,-25.2099 53.3656,-37.49816 15.9802,-14.37514 29.0713,-18.64669 27.1079,-28.00055 -1.615,0 -22.5617,13.68817 -38.1414,24.92549 -7.7941,5.6217 -16.4393,11.79867 -19.2117,13.7246 -2.7725,1.92588 -9.1082,6.46361 -14.079,10.08505 -15.686,11.42774 -37.9055,16.45424 -53.2936,12.05416 -8.506,-2.4322 -19.0295,-9.90783 -25.0372,-17.78423 -7.5813,-7.29178 -1.2224,-13.68974 2.4449,-22.23765 7.9336,-18.49561 10.1633,-28.20461 10.1279,-44.1012 -0.031,-13.35485 -2.6089,-19.32284 -8.651,-20.02897 -8.1479,-0.95231 -16.9799,11.86201 -22.3262,32.38832 -3.2565,12.50269 -3.2853,24.25715 -0.086,36.17888 1.3643,5.08288 2.489,9.42619 2.5008,9.65183 0.013,0.22569 -3.1971,3.67214 -7.1282,7.65981 -8.6125,8.7362 -27.8202,20.33615 -38.2201,23.08108 -8.7346,2.30534 -32.5169,6.73657 -38.5681,7.1872 l -4.122,0.30849 -0.086,-24.35772 c -0.086,-24.08885 -0.036,-24.40973 4.4272,-29.49378 8.107,-9.2335 8.3537,-21.3109 0.4954,-24.29865 -2.2845,-0.86858 -4.1547,-2.35446 -4.1547,-3.3015 0,-0.94705 -1.8087,-1.72297 -4.0202,-1.72297 -4.0976,0 -6.0617,2.7664 -6.0617,8.53931 0,1.77271 -0.567,3.13194 -1.2601,3.02257 -6.5881,-1.04023 -10.4555,0.68512 -13.6392,6.08122 -6.0032,10.17449 -14.3521,7.12733 -24.4038,-8.90359 -2.4903,-3.97183 -5.6794,-7.66383 -7.0886,-8.20456 -3.7664,-1.44526 -10.1019,2.46363 -21.5583,13.29794 -5.6014,5.29713 -11.0762,9.64489 -12.1691,9.66168 -2.9459,0.0452 -4.399,-6.19096 -4.1974,-18.0172 0.1607,-9.43837 -0.1628,-10.51826 -3.1604,-10.51826 -2.3718,0 -3.6356,1.46973 -4.355,5.06715 -0.5574,2.78712 -3.9095,8.26907 -7.4498,12.18214 -6.2796,6.9409 -6.4406,7.00595 -6.5079,2.70751 -0.06,-3.82448 -0.9561,-4.54775 -6.7901,-5.48063 -3.6966,-0.59111 -6.7211,-1.69445 -6.7211,-2.45154 0,-0.75709 -2.0793,-2.44183 -4.6208,-3.74457 -6.4128,-3.28714 -20.4434,-13.05609 -25.5425,-17.78422 -4.8401,-4.48794 -13.602,-8.97908 -17.5184,-8.97908 -3.7429,0 -7.2021,6.27887 -8.3292,15.12264 -0.8802,6.9055 -4.1595,18.09352 -9.8652,33.66499 -5.3915,14.71375 -21.6932,31.19278 -31.581,31.92561 -8.0001,0.59292 -9.5892,-0.0922 -16.6881,-7.20034 -8.2351,-8.24579 -15.4443,-21.62571 -18.7852,-34.86613 -2.9376,-11.64163 -2.7628,-60.37657 0.2887,-80.65417 3.193,-21.21658 3.0694,-24.36428 -0.9418,-24.36428 z m -346.45597,13.27172 c -1.4713,0.0267 -2.8953,0.85848 -3.3442,2.02816 -0.513,1.33679 0.3379,14.31396 1.8936,28.83742 l 2.8289,26.40557 -4.3123,3.43937 c -6.0956,4.86051 -5.608,10.83158 1.4013,17.20989 5.59,5.08671 5.7421,5.58395 7.1413,23.37317 0.7863,9.99712 1.2314,25.55032 0.9911,34.56094 -0.4115,15.43466 -0.2413,16.38286 2.9406,16.38286 2.343,0 3.4165,-1.15784 3.5082,-3.78065 0.2942,-8.40144 -0.2059,-26.61699 -1.2044,-43.81568 l -1.0568,-18.19445 9.04797,6.03856 c 4.9754,3.31986 10.179,6.52098 11.5652,7.11501 10.0106,4.28971 35.9574,27.17363 43.9633,38.77479 4.5895,6.65039 9.5307,9.34483 10.0162,5.46094 0.1154,-0.92417 0.3189,-2.62544 0.4529,-3.78066 0.3829,-3.30307 -13.2463,-20.37767 -22.6774,-28.41078 -4.7106,-4.01222 -18.1305,-13.72262 -29.822,-21.57801 -19.21257,-12.90861 -21.40907,-14.8991 -22.83817,-20.68534 -1.4653,-5.93264 -1.2189,-6.69787 3.3606,-10.44606 8.30067,-6.79405 36.48467,-25.51785 43.16907,-28.67988 4.4523,-2.10618 6.2453,-4.00061 6.1075,-6.45208 -1.8084,-1.40146 0.7594,-3.3495 -7.3677,-1.55565 -5.314,1.18503 -28.7768,15.76588 -40.58307,25.22086 l -6.9804,5.58894 -1.2176,-10.47887 c -0.6699,-5.76463 -1.6865,-17.59658 -2.2612,-26.29071 -0.8937,-13.5206 -1.4884,-15.87034 -4.0924,-16.24833 -0.2093,-0.0304 -0.4199,-0.0432 -0.6301,-0.0392 z m 250.70197,48.48895 c 2.3486,-0.15402 3.0619,0.8344 4.2632,3.994 3.5911,9.44556 -8.4667,29.54531 -23.5144,39.2014 -10.3756,6.65805 -11.8572,6.48624 -11.8572,-1.3685 0,-17.11666 14.4545,-38.34654 28.1384,-41.33135 1.2253,-0.26726 2.1873,-0.44416 2.97,-0.49555 z m 464.408,6.29128 c 5.1232,0 2.6388,23.90847 -4.3353,41.71201 -2.4171,6.17002 -5.0108,11.90628 -5.7629,12.74989 -2.0985,2.35381 -4.8538,-6.64041 -4.8538,-15.84795 0,-11.97725 10.3143,-38.61395 14.952,-38.61395 z m -221.5528,42.21426 -8.8576,6.03526 c -4.8727,3.31915 -11.5074,8.06606 -14.742,10.54781 -3.2346,2.48172 -8.3313,5.70421 -11.3256,7.1642 -16.03,7.81643 -23.2622,3.29047 -11.7784,-7.37098 9.6179,-8.92917 22.4842,-14.10486 38.8732,-15.64118 z m 105.7831,79.81756 v 6.89841 l 0.2231,15.99561 c -0.7614,6.68872 0.2353,13.35782 -0.075,19.24464 -1.5278,18.70688 -6.9947,20.69452 -14.9585,5.43472 -2.8928,-5.5431 -3.7196,-9.42217 -3.2194,-15.11937 0.8074,-9.19632 6.7085,-21.60701 13.2586,-27.88243 z"
       style="fill:#6784a6;fill-opacity:1;stroke-width:1.68029547"
       id="path4768" />
    <path
       inkscape:connector-curvature="0"
       id="path4874"
       d="m 405.30559,-514.59294 c -2.94367,-1.49476 -6.99731,-4.71362 -9.00809,-7.15304 -4.4785,-5.4332 -13.29148,-26.31875 -15.88821,-37.65289 -3.22883,-14.0931 -2.65897,-13.49842 -13.79326,-14.39366 -5.4031,-0.43443 -13.76979,-1.79032 -18.59263,-3.01312 -7.11465,-1.80386 -8.84028,-2.72414 -9.14771,-4.87851 -0.612,-4.28883 0.92013,-4.34778 28.25117,-1.08695 l 7.82929,0.9341 -0.002,-36.80288 c -0.003,-38.39206 2.38059,-71.73001 5.69784,-79.70738 1.13089,-2.71959 2.54594,-4.07123 4.26223,-4.07123 2.21767,0 2.5693,0.78741 2.5693,5.75348 0,3.16442 -1.09492,11.19727 -2.43316,17.85078 -4.07927,20.28154 -5.48778,41.16759 -4.69052,69.55343 0.40379,14.37644 1.03149,26.43631 1.39489,26.79971 1.47428,1.47428 26.11509,-2.38294 35.58206,-5.56994 5.57496,-1.87679 10.56083,-2.98781 11.0797,-2.46893 3.25365,3.25364 -8.41152,8.74609 -27.15342,12.78497 -15.82001,3.4092 -17.53761,4.14737 -17.53761,7.53706 0,4.59357 7.33869,26.76517 10.90859,32.95695 7.95442,13.79647 15.93207,18.68651 27.67943,16.9666 4.60055,-0.67356 6.90597,-1.92791 10.57992,-5.75641 4.50918,-4.69886 4.69757,-5.24472 4.69757,-13.61124 0,-9.25923 1.15511,-10.68867 4.50544,-5.57542 1.52644,2.32964 1.91729,5.08355 1.51359,10.66467 -0.62348,8.6195 -2.94854,12.48447 -10.88864,18.1003 -7.18253,5.08002 -19.417,5.90095 -27.41527,1.83955 z m 234.59373,-18.17751 c -13.17345,-6.85139 -19.35478,-23.29118 -19.39489,-51.58237 l -0.0217,-15.34541 H 609.9373 c -11.58514,0 -14.50835,-0.65217 -14.50835,-3.23686 0,-3.1409 5.59461,-5.44199 16.08436,-6.61557 5.7085,-0.63867 10.55252,-1.36076 10.76448,-1.60465 0.21198,-0.24389 1.60587,-9.36884 3.09753,-20.27766 3.29089,-24.06685 5.82109,-32.61005 9.82643,-33.1789 3.59561,-0.51065 3.58215,0.38999 -0.25518,17.08888 -3.36596,14.64767 -6.53054,36.13269 -5.47722,37.18602 0.3658,0.36579 6.76535,-0.19125 14.22121,-1.23786 17.18789,-2.41275 20.63614,-2.42212 20.63614,-0.0561 0,2.88832 -5.99704,5.30115 -20.1503,8.10718 -16.67732,3.30647 -17.43029,4.10288 -17.43029,18.43607 0,13.1871 2.7147,25.43181 7.49332,33.79888 6.8959,12.07426 19.73049,14.90706 32.30809,7.13094 6.70533,-4.14559 11.54985,-10.55863 11.57791,-15.32649 0.01,-1.79281 0.51124,-4.0365 1.11264,-4.986 2.056,-3.24602 3.87893,-0.01 3.87893,6.88602 0,6.57139 -0.29699,7.20485 -6.40669,13.66495 -8.34015,8.81848 -16.90444,13.12137 -26.09594,13.11117 -3.8477,-0.004 -8.63658,-0.88125 -10.71505,-1.96225 z m -72.03985,-2.10126 c -6.34561,-4.32125 -7.12305,-6.2744 -4.97312,-12.49383 2.17429,-6.28989 5.03671,-6.95417 6.4508,-1.49701 1.58544,6.11843 5.07397,8.50121 11.23617,7.67469 6.93405,-0.93006 11.62408,-4.52707 12.10273,-9.28215 0.47617,-4.73062 -6.42941,-18.07434 -19.81913,-38.29658 -10.77817,-16.2781 -20.95034,-38.53624 -22.11832,-48.39807 -0.6557,-5.53642 -0.3824,-6.51542 2.67142,-9.56924 3.31397,-3.31397 3.69877,-3.38631 14.89702,-2.80057 16.47623,0.86181 26.53221,5.82397 27.40619,13.5237 0.44964,3.96137 -3.06431,4.72072 -6.40166,1.38338 -5.73998,-5.73998 -26.41038,-8.66406 -28.86215,-4.0829 -2.58045,4.82162 5.4228,22.93018 21.34477,48.29576 17.25897,27.49557 21.62601,40.19527 16.93877,49.25937 -4.40493,8.5182 -22.25656,12.15142 -30.87349,6.28345 z m -114.3796,-13.15321 c -2.43752,-6.71753 -5.14495,-14.67251 -6.0165,-17.67775 -0.95887,-3.30631 -2.9738,-6.4911 -5.10242,-8.06486 -4.04837,-2.99309 -4.61006,-7.52889 -1.48486,-11.99073 1.88502,-2.69124 1.86223,-3.50901 -0.31317,-11.23973 -2.92414,-10.39149 -3.39484,-46.71628 -0.70376,-54.31093 4.88888,-13.79725 19.98222,-16.36115 30.5245,-5.1852 10.18087,10.79281 13.24912,27.50286 7.32558,39.89588 -1.64361,3.4387 -7.04187,10.48 -11.99615,15.64733 -4.95426,5.16733 -9.65741,10.65057 -10.45143,12.18498 -2.127,4.1103 1.63404,7.20517 12.65467,10.41322 13.82846,4.02539 14.89869,4.56111 21.85504,10.93981 8.52298,7.81525 21.7276,22.43367 21.7276,24.05396 0,0.70635 -1.37078,1.28428 -3.04617,1.28428 -2.09994,0 -6.79075,-3.47748 -15.10086,-11.19488 -12.23277,-11.36027 -17.45766,-14.16568 -31.67909,-17.00948 l -4.10307,-0.82047 0.75356,5.43043 c 0.41446,2.98675 1.83805,9.18207 3.16355,13.76738 2.801,9.68951 2.97677,12.51723 0.90677,14.58723 -3.05742,3.05742 -4.58322,1.22406 -8.91379,-10.71047 z m 10.40467,-60.54718 c 8.2782,-9.94727 10.47437,-14.39033 10.47437,-21.1906 0,-8.74878 -6.42068,-19.08082 -14.47105,-23.28653 -6.82924,-3.56776 -11.02531,-1.25293 -14.13724,7.79907 -1.85906,5.40766 -1.41613,7.47723 1.77911,8.3128 1.9814,0.51815 2.32576,2.58796 2.88625,17.34788 0.35004,9.21775 1.04609,17.7357 1.5468,18.9288 1.32434,3.15568 4.42275,1.09954 11.92176,-7.91142 z m 259.34189,60.20148 c -2.61196,-0.61225 -6.25435,-3.05207 -9.08198,-6.08344 -8.63156,-9.25348 -5.80323,-19.71243 6.83094,-25.26028 8.05413,-3.53669 21.29456,-3.86116 29.66891,-0.72707 3.03562,1.13608 5.83848,1.74644 6.22855,1.35636 1.82993,-1.82992 -12.2186,-33.86321 -17.46494,-39.82335 -9.97798,-11.33559 -16.00924,-10.61366 -31.37411,3.75541 -9.24241,8.6434 -13.34965,10.70302 -14.49317,7.26778 -1.56609,-4.70462 21.71575,-28.11934 30.3228,-30.49585 5.44456,-1.50332 13.85229,0.1775 17.35687,3.46988 4.80202,4.51127 12.73693,19.79646 21.53137,41.47638 4.61147,11.36813 8.74813,21.07927 9.19256,21.58032 0.76976,0.8678 15.64398,-8.21669 20.64657,-12.60998 1.30302,-1.14431 3.35766,-4.26389 4.56589,-6.93239 2.76906,-6.11587 2.08536,-8.61637 -6.18442,-22.61742 -3.51322,-5.948 -6.38768,-11.81193 -6.38768,-13.03095 0,-2.89434 2.40109,-5.22285 5.38564,-5.22285 2.8903,0 14.62642,7.07069 26.52872,15.98286 4.8389,3.62324 15.8443,10.07861 24.4565,14.34526 19.7797,9.79922 29.7538,15.81036 40.3112,24.29472 l 8.3676,6.72456 0.9008,-7.18583 c 0.4955,-3.95221 0.5376,-18.89313 0.094,-33.20204 -0.6661,-21.46929 -1.2579,-27.35399 -3.3858,-33.67064 -2.971,-8.81911 -2.8289,-14.00829 0.4003,-14.62078 3.8565,-0.73148 8.4923,11.62445 9.6875,25.82011 2.0058,23.82385 2.9296,80.01837 1.3317,81.00592 -3.1159,1.92569 -7.695,-0.94725 -20.4836,-12.85138 -10.7426,-9.99964 -16.0168,-13.80938 -28.0456,-20.25823 -8.1481,-4.36837 -19.6258,-10.67301 -25.5059,-14.01031 -14.7446,-8.3683 -15.0037,-8.3051 -14.9246,3.64051 0.035,5.33957 0.4582,13.37243 0.9395,17.85078 0.4814,4.47835 0.5934,10.39729 0.2489,13.1532 -0.5428,4.34265 -1.0439,5.01075 -3.7581,5.01075 -3.8002,0 -7.5011,-6.46172 -7.5333,-13.15321 -0.041,-8.44549 -1.3123,-8.02662 -15.39849,5.07269 -10.54386,9.80513 -14.18086,12.47378 -16.86442,12.37426 -1.88179,-0.0698 -7.10802,1.27903 -11.61385,2.99737 -7.33483,2.79722 -11.2225,3.62002 -24.37744,5.15936 -2.06693,0.24187 -5.72048,-0.0203 -8.11899,-0.58248 z m 20.01951,-11.30218 c 8.07113,-1.79255 12.69033,-3.83347 12.17505,-5.37932 -0.24542,-0.73629 -2.9443,-2.67342 -5.99747,-4.30472 -4.79001,-2.55929 -6.95047,-2.91046 -15.75526,-2.56098 -7.8383,0.31113 -10.80804,0.95183 -12.80924,2.7635 -3.04945,2.76066 -2.28943,4.83358 3.06671,8.36443 4.05563,2.67353 10.60672,3.05232 19.32021,1.11709 z m -218.50307,6.09866 c -0.28844,-0.90955 -1.17379,-8.70009 -1.96743,-17.3123 -0.79363,-8.61222 -1.73169,-18.75898 -2.08456,-22.54836 -0.69101,-7.42035 1.78104,-13.26299 4.48597,-10.60253 1.51514,1.49023 5.33264,31.04953 5.57558,43.17238 0.15136,7.55275 -0.0413,8.17151 -2.66097,8.54349 -1.55328,0.22056 -3.06015,-0.34315 -3.34859,-1.25268 z m -14.10892,-85.75397 c -1.04924,-2.73426 1.13433,-6.00153 4.33025,-6.47936 3.15182,-0.47125 4.98785,4.01126 2.74831,6.70974 -2.026,2.44118 -6.10432,2.30845 -7.07856,-0.23038 z"
       style="fill:#6784a6;stroke-width:1.25268626;fill-opacity:1" />
  </g>
</svg>
